<?xml version="1.0" encoding="UTF-8"?>
<svg id="Layer_2" data-name="Layer 2" xmlns="http://www.w3.org/2000/svg" viewBox="0 0 67.31 67.31">
  <defs>
    <style>
      .cls-1 {
        fill: #5fb7b3;
      }

      .cls-2 {
        fill: #fff;
      }
    </style>
  </defs>
  <g id="Layer_2-2" data-name="Layer 2">
    <g>
      <path class="cls-1" d="M0,67.31h67.31V0H0v67.31Z"/>
      <path class="cls-2" d="M11.23,52.69h.81v3.67h-.81v-3.67ZM21.06,56.35h-.81c-.1-.23-.09-.59-.13-.88-.06-.38-.2-.56-.61-.56h-.81v1.43h-.81v-3.67h1.98c.66,0,1.07.46,1.07,1.01,0,.43-.18.76-.58.92h0c.4.11.51.5.54.87.01.23,0,.66.15.87ZM20.15,53.82c0-.35-.2-.51-.56-.51h-.88v1.03h.88c.36,0,.56-.15.56-.52ZM30.17,54.53c0,1.06-.67,1.91-1.8,1.91s-1.8-.85-1.8-1.91.67-1.94,1.8-1.94,1.8.85,1.8,1.94ZM29.37,54.53c0-.64-.27-1.26-1-1.26s-1,.62-1,1.26.27,1.23,1,1.23,1-.62,1-1.23ZM37.54,52.69c.91,0,1.27.58,1.27,1.18s-.36,1.17-1.27,1.17h-.85v1.32h-.81v-3.67h1.66ZM37.31,53.31h-.63v1.1h.63c.37,0,.71-.08.71-.55s-.33-.55-.71-.55ZM46.21,54.13l1.43-1.45h-1.01l-1.43,1.52v-1.52h-.81v3.67h.81v-1.18l.46-.47,1.1,1.65h1.01l-1.57-2.22ZM56.08,55.68h-1.98v-.9h1.78v-.63h-1.78v-.79h1.94v-.68h-2.74v3.67h2.79v-.68ZM25.02,17.77c0,3.81-3.09,6.9-6.9,6.9s-6.9-3.09-6.9-6.9,3.09-6.9,6.9-6.9,6.9,3.09,6.9,6.9ZM21.57,17.77c0-1.9-1.55-3.45-3.45-3.45s-3.45,1.55-3.45,3.45,1.55,3.45,3.45,3.45,3.45-1.55,3.45-3.45ZM39.63,14.32c-1.19-2.06-3.42-3.45-5.98-3.45h-6.9v3.45h6.9c1.9,0,3.45,1.55,3.45,3.45s-1.55,3.45-3.45,3.45c-1.75,0-3.35.65-4.56,1.73-.56.49-1.04,1.08-1.41,1.72-.59,1.02-.92,2.19-.92,3.45s.34,2.44.92,3.45c1.19,2.06,3.42,3.45,5.98,3.45h3.45v-3.45h-3.45c-1.9,0-3.45-1.55-3.45-3.45s1.55-3.45,3.45-3.45c1.75,0,3.35-.65,4.56-1.72.56-.49,1.04-1.08,1.41-1.73.59-1.02.93-2.19.93-3.45s-.34-2.44-.93-3.45ZM49.18,14.32c1.9,0,3.45,1.55,3.45,3.45v6.9h3.45v-6.9c0-1.26-.34-2.44-.93-3.45-.61-1.05-1.48-1.92-2.53-2.52-1.01-.59-2.19-.93-3.45-.93h-6.9v3.45h6.9ZM12.74,42.32c-1.08,0-1.51.9-1.51,2s.42,2.01,1.51,2.01,1.5-.89,1.5-2.01-.42-2-1.5-2ZM12.74,45.76c-.6,0-.79-.66-.79-1.44s.19-1.43.79-1.43.79.66.79,1.43-.19,1.44-.79,1.44ZM15.77,46.96v-4.96h-.71v4.96h.71ZM30.87,44.97h5.24v-.54h-2.27v-.31h1.68v-.53h-3.3v-.21h3.24v-1.26h-3.95v.53h3.24v.21h-3.24v1.26h1.62v.31h-2.27v.54ZM34.78,45.52h-2.56v-.34h-.7v1.79h3.95v-1.79h-.7v.34ZM32.22,46.06h2.56v.35h-2.56v-.35ZM51.38,43.03h1.48v.4c0,1.13-.39,1.95-1.65,2.46l.45.47c1.5-.66,1.89-1.66,1.89-3.12v-.79h-2.18v.58ZM53.63,43.92v.57h.61v2.36h.7v-4.8h-.7v1.86h-.61ZM55.38,46.96h.7v-4.96h-.7v4.96Z"/>
    </g>
  </g>
</svg>