<?xml version="1.0" encoding="UTF-8"?><svg id="a" xmlns="http://www.w3.org/2000/svg" viewBox="0 0 124.14 66.84"><defs><style>.b{fill:#fff;}.c{fill:#494c4d;}</style></defs><path class="c" d="M19.1,38.2c10.54,0,19.1-8.55,19.1-19.1S29.64,0,19.1,0,0,8.55,0,19.1s8.55,19.1,19.1,19.1Z"/><path class="b" d="M19.1,9.55c5.26,0,9.55,4.28,9.55,9.54s-4.28,9.55-9.55,9.55-9.55-4.28-9.55-9.55,4.28-9.54,9.55-9.54Z"/><path class="c" d="M52.52,47.75c0,5.26,4.28,9.54,9.55,9.54h9.55v9.55h-9.55c-7.06,0-13.23-3.84-16.53-9.55-1.63-2.81-2.56-6.06-2.56-9.54s.93-6.75,2.56-9.55c1.04-1.79,2.36-3.41,3.91-4.77,3.37-2.97,7.78-4.78,12.62-4.78,5.26,0,9.55-4.28,9.55-9.55s-4.29-9.54-9.55-9.54h-19.1V0h19.1c7.07,0,13.23,3.84,16.54,9.55,1.63,2.8,2.56,6.07,2.56,9.54s-.93,6.74-2.56,9.55c-1.04,1.8-2.37,3.41-3.91,4.78-3.37,2.97-7.78,4.77-12.63,4.77-5.26,0-9.55,4.28-9.55,9.55Z"/><path class="c" d="M114.58,28.64v-9.55c0-5.26-4.28-9.54-9.55-9.54h-19.09V0h19.09c3.49,0,6.74.93,9.55,2.56,2.9,1.68,5.31,4.09,6.99,6.99,1.63,2.8,2.57,6.07,2.57,9.54v19.1h-9.55v-9.55Z"/></svg>