<?xml version="1.0" encoding="UTF-8"?><svg id="a" xmlns="http://www.w3.org/2000/svg" viewBox="0 0 400 400"><defs><style>.b{fill:#fff;}.c{fill:#a2a2a2;}</style></defs><path class="c" d="M398.68,200c0,109.73-88.95,198.68-198.68,198.68h0C90.27,398.68,1.32,309.73,1.32,200h0C1.32,90.27,90.27,1.32,200,1.32h0c109.73,0,198.68,88.95,198.68,198.68h0Z"/><path class="b" d="M285.62,115.82H114.38c-16.92,0-30.64,13.72-30.64,30.63v107.1c0,16.92,13.72,30.63,30.64,30.63h171.24c16.91,0,30.63-13.71,30.63-30.63v-107.1c0-16.91-13.72-30.63-30.63-30.63ZM227.51,207.39l-47.62,23.8c-5.5,2.75-11.96-1.24-11.96-7.38v-47.6c0-6.14,6.47-10.13,11.96-7.39l47.62,23.8c6.08,3.04,6.08,11.73,0,14.77Z"/></svg>