<?xml version="1.0" encoding="UTF-8"?><svg id="a" xmlns="http://www.w3.org/2000/svg" viewBox="0 0 400 400"><defs><style>.b{fill:#fff;}.c{fill:#a2a2a2;}</style></defs><path class="c" d="M398.68,200c0,109.73-88.95,198.68-198.68,198.68h0C90.27,398.68,1.32,309.73,1.32,200h0C1.32,90.27,90.27,1.32,200,1.32h0c109.73,0,198.68,88.95,198.68,198.68h0Z"/><circle class="b" cx="129.63" cy="121.3" r="25.59"/><rect class="b" x="108.31" y="163.94" width="42.65" height="127.94" rx="1.91" ry="1.91"/><path class="b" d="M295.96,210.86v72.5c0,4.69-3.84,8.53-8.53,8.53h-25.59c-4.69,0-8.53-3.84-8.53-8.53v-59.71c0-11.77-9.55-21.32-21.32-21.32s-21.32,9.55-21.32,21.32v59.71c0,4.69-3.84,8.53-8.53,8.53h-25.59c-4.69,0-8.53-3.84-8.53-8.53v-110.89c0-4.69,3.84-8.53,8.53-8.53h25.59c4.69,0,8.53,3.84,8.53,8.53v5.46c8.53-11.05,22.65-18.25,38.38-18.25,23.54,0,46.91,17.06,46.91,51.18Z"/></svg>